<svg width="177" height="64" viewBox="0 0 177 64" fill="none" xmlns="http://www.w3.org/2000/svg">
<path d="M153.299 11.4882V0.00857227H121.072L115.772 38.3595L110.527 0.00875852H98.9059L100.208 10.2421C98.8654 7.62051 94.1073 0.00875852 83.6363 0.00875852C83.5673 0.00428617 71.9989 0.00875852 71.9989 0.00875852L71.9544 55.9083L63.4837 0.00875852L48.2634 0L39.5003 57.9195L39.5048 0.00838603H24.938L19.6866 32.5419L14.5715 0.00875852H0V62.9768H11.4748V32.6264L16.6944 62.9761H22.7948L27.9411 32.6264V62.9761H50.0625L51.4048 53.2869H60.3112L61.649 62.9761L83.3669 62.9893H83.3846V62.9761H83.3981H83.4117V42.5365L86.0741 42.1521L91.5861 62.9893H91.5996H102.806H102.819L102.815 62.9761H102.835H102.848L95.6151 38.5539C99.2807 35.8664 103.42 29.0414 102.318 22.5123V22.508C102.331 22.5964 109.145 63.0163 109.145 63.0163L122.506 62.9761L131.635 5.90071V62.9763H153.299V51.6514H143.016V37.2101H153.299V25.7128H143.016V11.4882H153.299ZM52.7566 43.3017L55.9071 16.3817L59.1783 43.3017H52.7566ZM86.1113 30.8715C85.2283 31.296 84.3075 31.5083 83.4111 31.5083V11.2539C83.4267 11.2539 83.4447 11.2498 83.4669 11.2498C84.3656 11.2454 91.0657 11.5193 91.0657 21.2705C91.0657 26.3714 88.7869 29.5853 86.1113 30.8715ZM176.419 51.6426V62.9673H155.285V0H166.664V51.6426H176.419Z" fill="white"/>
</svg>
