<svg width="99" height="41" viewBox="0 0 99 41" fill="none" xmlns="http://www.w3.org/2000/svg">
<rect width="99" height="41" fill="#ED1D24"/>
<path d="M83.0741 10.016V4.00449H66.451L63.7172 24.0879L61.012 4.00459H55.0174L55.6889 9.36349C54.9965 7.99066 52.5422 4.00459 47.1411 4.00459C47.1055 4.00224 41.1383 4.00459 41.1383 4.00459L41.1153 33.2777L36.746 4.00459L28.8951 4L24.3749 34.3309L24.3773 4.00439H16.8635L14.1547 21.0414L11.5162 4.00459H4V36.9793H9.91889V21.0856L12.6113 36.9789H15.758L18.4125 21.0856V36.9789H29.8231L30.5155 31.905H35.1095L35.7996 36.9789L47.0021 36.9858H47.0112V36.9789H47.0182H47.0252V26.2753L48.3985 26.0739L51.2417 36.9858H51.2487H57.0293H57.0361L57.0337 36.9789H57.044H57.051L53.3199 24.1897C55.2107 22.7823 57.3456 19.2082 56.7774 15.7891V15.7869C56.7842 15.8331 60.2991 37 60.2991 37L67.1906 36.9789L71.8995 7.09004V36.979H83.0744V31.0485H77.7699V23.486H83.0744V17.4651H77.7699V10.016H83.0741ZM31.2128 26.6759L32.8378 12.5786L34.5252 26.6759H31.2128ZM48.4177 20.1666C47.9622 20.3889 47.4873 20.5 47.0249 20.5V9.89338C47.0329 9.89338 47.0423 9.89124 47.0537 9.89124C47.5172 9.88889 50.9733 10.0323 50.9733 15.1388C50.9733 17.81 49.7979 19.4931 48.4177 20.1666ZM95 31.0439V36.9743H84.0988V4H89.9682V31.0439H95Z" fill="white"/>
</svg>
